<?xml version="1.0" encoding="UTF-8" standalone="no"?>
<svg
   xmlns:dc="http://purl.org/dc/elements/1.1/"
   xmlns:cc="http://creativecommons.org/ns#"
   xmlns:rdf="http://www.w3.org/1999/02/22-rdf-syntax-ns#"
   xmlns:svg="http://www.w3.org/2000/svg"
   xmlns="http://www.w3.org/2000/svg"
   xmlns:sodipodi="http://sodipodi.sourceforge.net/DTD/sodipodi-0.dtd"
   xmlns:inkscape="http://www.inkscape.org/namespaces/inkscape"
   aria-hidden="true"
   focusable="false"
   data-prefix="far"
   data-icon="life-ring"
   class="svg-inline--fa fa-life-ring fa-w-16"
   role="img"
   viewBox="0 0 536.93176 536.93176"
   version="1.1"
   id="svg4"
   sodipodi:docname="life-ring-regular_with_bg.svg"
   inkscape:version="1.0.2 (1.0.2+r75+1)"
   width="536.93176"
   height="536.93176">
  <metadata
     id="metadata10">
    <rdf:RDF>
      <cc:Work
         rdf:about="">
        <dc:format>image/svg+xml</dc:format>
        <dc:type
           rdf:resource="http://purl.org/dc/dcmitype/StillImage" />
        <dc:title></dc:title>
      </cc:Work>
    </rdf:RDF>
  </metadata>
  <defs
     id="defs8" />
  <sodipodi:namedview
     pagecolor="#ffffff"
     bordercolor="#666666"
     borderopacity="1"
     objecttolerance="10"
     gridtolerance="10"
     guidetolerance="10"
     inkscape:pageopacity="0"
     inkscape:pageshadow="2"
     inkscape:window-width="1880"
     inkscape:window-height="1055"
     id="namedview6"
     showgrid="false"
     inkscape:snap-page="true"
     inkscape:zoom="1.0095607"
     inkscape:cx="415.36162"
     inkscape:cy="299.07349"
     inkscape:window-x="0"
     inkscape:window-y="0"
     inkscape:window-maximized="1"
     inkscape:current-layer="layer2"
     inkscape:document-rotation="0"
     fit-margin-top="0"
     fit-margin-left="0"
     fit-margin-right="0"
     fit-margin-bottom="0" />
  <g
     inkscape:groupmode="layer"
     id="layer2"
     inkscape:label="bg"
     transform="translate(12.465881,12.465881)">
    <circle
       style="opacity:1;fill:#ffffff;fill-opacity:1;stroke:none;stroke-width:1.15735;stroke-linecap:round;stroke-linejoin:round;paint-order:markers stroke fill;stop-color:#000000"
       id="path842"
       cx="256"
       cy="256"
       r="268.46588" />
  </g>
  <g
     inkscape:groupmode="layer"
     id="layer1"
     inkscape:label="Layer 1"
     transform="translate(12.465881,12.465881)">
    <path
       fill="currentColor"
       d="M 256,504 C 392.967,504 504,392.967 504,256 504,119.033 392.967,8 256,8 119.033,8 8,119.033 8,256 8,392.967 119.033,504 256,504 Z m -103.398,-76.72 53.411,-53.411 c 31.806,13.506 68.128,13.522 99.974,0 l 53.411,53.411 c -63.217,38.319 -143.579,38.319 -206.796,0 z M 336,256 c 0,44.112 -35.888,80 -80,80 -44.112,0 -80,-35.888 -80,-80 0,-44.112 35.888,-80 80,-80 44.112,0 80,35.888 80,80 z m 91.28,103.398 -53.411,-53.411 c 13.505,-31.806 13.522,-68.128 0,-99.974 l 53.411,-53.411 c 38.319,63.217 38.319,143.579 0,206.796 z M 359.397,84.72 305.986,138.131 c -31.806,-13.505 -68.128,-13.522 -99.973,0 L 152.602,84.72 c 63.217,-38.319 143.579,-38.319 206.795,0 z m -274.677,67.882 53.411,53.411 c -13.506,31.806 -13.522,68.128 0,99.974 L 84.72,359.398 c -38.319,-63.217 -38.319,-143.579 0,-206.796 z"
       id="path2" />
  </g>
</svg>
